<svg width="16" height="16" viewBox="0 0 16 16" fill="none" xmlns="http://www.w3.org/2000/svg">
<path fill-rule="evenodd" clip-rule="evenodd" d="M7.7664 15.391L6.6299 15.9C6.13564 16.1214 5.55387 15.9655 5.23652 15.5267L4.50681 14.5176C4.41138 14.3856 4.26418 14.3007 4.10219 14.284L2.86343 14.1566C2.32471 14.1012 1.89882 13.6753 1.84341 13.1366L1.716 11.8978C1.69934 11.7358 1.61436 11.5886 1.4824 11.4932L0.473308 10.7635C0.034459 10.4461 -0.121427 9.86436 0.0999525 9.3701L0.608992 8.2336C0.675561 8.08498 0.675561 7.91502 0.608992 7.76639L0.0999525 6.6299C-0.121427 6.13564 0.034459 5.55387 0.473308 5.23652L1.4824 4.5068C1.61436 4.41138 1.69934 4.26418 1.716 4.10219L1.84341 2.86344C1.89882 2.32471 2.32471 1.89881 2.86343 1.84341L4.10219 1.716C4.26418 1.69934 4.41138 1.61436 4.50681 1.48239L5.23652 0.473308C5.55387 0.0344591 6.13564 -0.121427 6.6299 0.0999525L7.7664 0.608988C7.91502 0.675557 8.08498 0.675557 8.23361 0.608988L9.3701 0.0999525C9.86436 -0.121427 10.4461 0.0344591 10.7635 0.473308L11.4932 1.48239C11.5886 1.61436 11.7358 1.69934 11.8978 1.716L13.1366 1.84341C13.6753 1.89881 14.1012 2.32471 14.1566 2.86344L14.284 4.10219C14.3007 4.26418 14.3856 4.41138 14.5176 4.5068L15.5267 5.23652C15.9655 5.55387 16.1214 6.13564 15.9001 6.6299L15.391 7.76639C15.3244 7.91502 15.3244 8.08498 15.391 8.2336L15.9001 9.3701C16.1214 9.86436 15.9655 10.4461 15.5267 10.7635L14.5176 11.4932C14.3856 11.5886 14.3007 11.7358 14.284 11.8978L14.1566 13.1366C14.1012 13.6753 13.6753 14.1012 13.1366 14.1566L11.8978 14.284C11.7358 14.3007 11.5886 14.3856 11.4932 14.5176L10.7635 15.5267C10.4461 15.9655 9.86436 16.1214 9.3701 15.9L8.23361 15.391C8.08498 15.3244 7.91502 15.3244 7.7664 15.391ZM4.91232 6.91895L3.94249 7.88879L7.19824 11.1445L12.196 6.14675L11.2262 5.17692L7.19824 9.20487L4.91232 6.91895Z" fill="#3FB4F2"/>
</svg>
